<svg xmlns="http://www.w3.org/2000/svg" xmlns:xlink="http://www.w3.org/1999/xlink" width="500" zoomAndPan="magnify" viewBox="0 0 375 374.999991" height="500" preserveAspectRatio="xMidYMid meet" version="1.0"><defs><g/><clipPath id="10c056bba9"><path d="M 23 38 L 355 38 L 355 340 L 23 340 Z M 23 38 " clip-rule="nonzero"/></clipPath><clipPath id="fb95981363"><path d="M 137.457031 -48.117188 L 395.683594 90.855469 L 237.160156 385.40625 L -21.066406 246.433594 Z M 137.457031 -48.117188 " clip-rule="nonzero"/></clipPath><clipPath id="01c390e877"><path d="M 137.457031 -48.117188 L 395.683594 90.855469 L 237.160156 385.40625 L -21.066406 246.433594 Z M 137.457031 -48.117188 " clip-rule="nonzero"/></clipPath></defs><g clip-path="url(#10c056bba9)"><g clip-path="url(#fb95981363)"><g clip-path="url(#01c390e877)"><path fill="#ffffff" d="M 132.082031 328.210938 C 128.308594 326.183594 124.546875 323.886719 120.800781 321.320312 L 120.585938 321.164062 L 115.828125 317.347656 L 116.75 314.945312 C 116.835938 314.730469 122.355469 300.183594 127.925781 280.121094 C 119.808594 276.914062 112.222656 272.351562 105.332031 266.535156 C 98.15625 261.058594 92.058594 254.644531 87.160156 247.414062 C 68.773438 257.203125 55.777344 265.746094 55.578125 265.871094 L 53.429688 267.292969 L 51.417969 265.679688 C 25.445312 244.839844 16.324219 208.851562 29.222656 178.152344 C 29.222656 178.152344 71.601562 77.34375 71.609375 77.328125 C 77.742188 62.742188 96.597656 50.898438 113.851562 57.234375 C 119.21875 59.210938 128.878906 63.96875 133.273438 73.675781 C 136.578125 80.972656 135.953125 88.960938 135.199219 94.335938 C 134.667969 98.09375 133.871094 101.796875 133.09375 105.382812 L 133.035156 105.660156 C 132.457031 108.359375 133.914062 110.308594 135.480469 111.21875 C 137.027344 112.144531 139.453125 112.464844 141.527344 110.644531 L 194.074219 62.347656 C 229.542969 31.175781 281.921875 30 318.679688 59.503906 C 339.714844 76.382812 352.835938 101.492188 354.691406 128.394531 C 356.539062 155.28125 346.992188 181.933594 328.488281 201.53125 L 242.890625 297.148438 C 239.914062 300.480469 236.929688 303.933594 234.046875 307.277344 C 230.199219 311.746094 226.214844 316.375 222.132812 320.808594 C 214.011719 329.628906 204.648438 335.113281 194.308594 337.105469 C 179.023438 340.042969 165.878906 340.011719 154.125 337.003906 C 146.808594 335.105469 139.433594 332.167969 132.082031 328.210938 Z M 124.902344 315.5625 C 135.226562 322.609375 145.652344 327.511719 155.886719 330.128906 C 166.609375 332.878906 178.746094 332.882812 192.980469 330.140625 C 201.804688 328.4375 209.871094 323.679688 216.9375 315.996094 C 220.941406 311.648438 224.882812 307.070312 228.699219 302.640625 C 231.601562 299.277344 234.597656 295.796875 237.621094 292.417969 L 323.3125 196.6875 C 340.734375 178.257812 349.375 154.164062 347.628906 128.855469 C 345.886719 103.550781 334.039062 80.871094 314.25 64.996094 C 280.160156 37.652344 231.613281 38.738281 198.792969 67.585938 L 146.246094 115.878906 C 142.148438 119.484375 136.535156 120.015625 131.898438 117.296875 C 127.257812 114.570312 124.996094 109.410156 126.132812 104.152344 L 126.191406 103.875 C 126.941406 100.414062 127.710938 96.835938 128.203125 93.328125 C 129.214844 86.179688 128.777344 80.855469 126.839844 76.574219 C 124.394531 71.195312 118.777344 66.554688 111.414062 63.847656 C 97.898438 58.882812 83.015625 68.398438 78.125 80.039062 C 78.0625 80.1875 35.738281 180.867188 35.738281 180.867188 C 24.375 207.886719 31.863281 239.433594 53.886719 258.519531 C 58.464844 255.585938 69.332031 248.816406 83.425781 241.292969 C 81.4375 237.675781 79.726562 233.882812 78.304688 229.929688 C 78.269531 229.859375 78.246094 229.796875 78.210938 229.726562 C 78.097656 229.476562 78.007812 229.207031 77.957031 228.949219 C 77.160156 226.644531 76.464844 224.285156 75.878906 221.871094 C 69.859375 197.433594 75.800781 171.929688 90.328125 159.863281 C 99.367188 152.359375 110.652344 151.089844 122.101562 156.285156 C 141.707031 165.191406 147.273438 188.828125 146.390625 215.335938 C 172.078125 208.726562 196.347656 209.039062 209.292969 226.257812 C 216.847656 236.300781 218.054688 247.59375 212.679688 258.046875 C 204.046875 274.847656 180.449219 286.175781 155.28125 285.589844 C 152.796875 285.527344 150.347656 285.363281 147.914062 285.089844 C 147.652344 285.097656 147.375 285.070312 147.097656 285.007812 C 147.023438 284.992188 146.949219 284.980469 146.871094 284.957031 C 142.703125 284.429688 138.636719 283.578125 134.671875 282.425781 C 130.367188 297.863281 126.09375 309.960938 124.230469 315.039062 Z M 109.777344 260.980469 C 115.734375 265.511719 122.503906 269.355469 129.984375 272.417969 C 132.144531 264.042969 134.214844 254.980469 135.851562 245.769531 C 137.042969 239.078125 138.054688 232.019531 138.699219 224.929688 C 131.917969 227.089844 125.246094 229.609375 118.972656 232.222656 C 110.335938 235.820312 101.9375 239.796875 94.226562 243.722656 C 98.835938 250.367188 104.058594 256.148438 109.777344 260.980469 Z M 145.992188 222.765625 C 144.667969 240.492188 140.851562 258.996094 136.722656 274.902344 C 140.351562 276.101562 144.132812 277.132812 148.039062 277.980469 C 150.476562 278.28125 152.953125 278.46875 155.453125 278.519531 C 177.660156 279.035156 199.085938 269.066406 206.402344 254.816406 C 210.519531 246.792969 209.578125 238.386719 203.65625 230.507812 C 192.308594 215.410156 169.171875 216.421875 145.992188 222.765625 Z M 84.886719 227.300781 C 86.5625 230.929688 88.386719 234.402344 90.34375 237.679688 C 104.984375 230.203125 122.214844 222.472656 139.230469 217.34375 C 140.402344 193.335938 136.390625 170.539062 119.1875 162.726562 C 110.214844 158.648438 101.800781 159.539062 94.855469 165.300781 C 82.53125 175.53125 77.441406 198.613281 82.75 220.171875 C 83.347656 222.609375 84.0625 224.992188 84.886719 227.300781 Z M 84.886719 227.300781 " fill-opacity="1" fill-rule="nonzero"/></g></g></g><g fill="#ffffff" fill-opacity="1"><g transform="translate(182.519729, 122.88575)"><g><path d="M 29.796875 -6.109375 C 30.523438 -4.984375 30.523438 -3.925781 29.796875 -2.9375 C 28.929688 -1.8125 28.054688 -1.054688 27.171875 -0.671875 C 24.378906 0.640625 21.3125 1.375 17.96875 1.53125 C 13.007812 1.164062 8.988281 -0.453125 5.90625 -3.328125 C 1.78125 -7.160156 0.515625 -12.144531 2.109375 -18.28125 C 3.285156 -22.90625 6.144531 -26.679688 10.6875 -29.609375 C 11.726562 -30.253906 12.820312 -30.738281 13.96875 -31.0625 C 15.125 -31.394531 16.273438 -31.5625 17.421875 -31.5625 C 18.773438 -31.5625 20.085938 -31.34375 21.359375 -30.90625 C 22.628906 -30.476562 23.785156 -29.832031 24.828125 -28.96875 C 25.609375 -28.320312 26.179688 -27.617188 26.546875 -26.859375 C 26.859375 -26.148438 26.832031 -25.523438 26.46875 -24.984375 C 26.050781 -24.429688 25.425781 -24.207031 24.59375 -24.3125 C 23.988281 -24.363281 23.320312 -24.546875 22.59375 -24.859375 C 19.875 -25.960938 17.460938 -26.09375 15.359375 -25.25 C 13.265625 -24.414062 11.316406 -22.566406 9.515625 -19.703125 C 9.117188 -19.066406 8.820312 -18.394531 8.625 -17.6875 C 8.4375 -16.988281 8.289062 -16.351562 8.1875 -15.78125 C 7.820312 -13.945312 8.066406 -12.222656 8.921875 -10.609375 C 9.785156 -8.992188 11.117188 -7.753906 12.921875 -6.890625 C 14.328125 -6.179688 15.710938 -5.769531 17.078125 -5.65625 C 18.453125 -5.539062 19.773438 -5.597656 21.046875 -5.828125 C 22.316406 -6.066406 23.523438 -6.382812 24.671875 -6.78125 C 25.003906 -6.882812 25.375 -6.992188 25.78125 -7.109375 C 26.1875 -7.222656 26.570312 -7.304688 26.9375 -7.359375 C 28.1875 -7.492188 29.140625 -7.078125 29.796875 -6.109375 Z M 29.796875 -6.109375 "/></g></g></g><g fill="#ffffff" fill-opacity="1"><g transform="translate(214.262742, 122.88575)"><g><path d="M 20.125 -7.828125 C 20.382812 -6.648438 20.394531 -5.664062 20.15625 -4.875 C 19.925781 -4.082031 19.429688 -3.523438 18.671875 -3.203125 C 17.867188 -2.867188 17.070312 -2.878906 16.28125 -3.234375 C 15.5 -3.585938 14.769531 -4.257812 14.09375 -5.25 C 14.039062 -5.320312 13.972656 -5.40625 13.890625 -5.5 C 13.816406 -5.59375 13.742188 -5.703125 13.671875 -5.828125 C 13.460938 -5.703125 13.269531 -5.566406 13.09375 -5.421875 C 12.925781 -5.273438 12.738281 -5.148438 12.53125 -5.046875 C 11.976562 -4.785156 11.425781 -4.503906 10.875 -4.203125 C 10.332031 -3.910156 9.757812 -3.695312 9.15625 -3.5625 C 7.695312 -3.195312 6.359375 -3.257812 5.140625 -3.75 C 3.929688 -4.25 2.988281 -5.0625 2.3125 -6.1875 C 1.632812 -7.3125 1.359375 -8.628906 1.484375 -10.140625 C 1.566406 -11.367188 1.890625 -12.566406 2.453125 -13.734375 C 3.015625 -14.910156 3.726562 -16 4.59375 -17 C 5.46875 -18.007812 6.453125 -18.851562 7.546875 -19.53125 C 8.648438 -20.21875 9.773438 -20.648438 10.921875 -20.828125 C 12.222656 -21.066406 13.398438 -20.929688 14.453125 -20.421875 C 15.515625 -19.910156 16.53125 -19.289062 17.5 -18.5625 C 17.8125 -18.320312 18.039062 -17.953125 18.1875 -17.453125 C 18.332031 -16.960938 18.441406 -16.492188 18.515625 -16.046875 C 18.828125 -14.691406 19.101562 -13.320312 19.34375 -11.9375 C 19.582031 -10.5625 19.84375 -9.191406 20.125 -7.828125 Z M 8.8125 -9.234375 C 10.007812 -9.710938 10.921875 -10.585938 11.546875 -11.859375 C 12.171875 -13.140625 12.351562 -14.523438 12.09375 -16.015625 C 10.789062 -15.492188 9.765625 -14.753906 9.015625 -13.796875 C 8.273438 -12.847656 7.6875 -11.757812 7.25 -10.53125 C 7.195312 -10.351562 7.171875 -10.101562 7.171875 -9.78125 C 7.171875 -9.46875 7.222656 -9.285156 7.328125 -9.234375 C 7.535156 -9.128906 7.773438 -9.078125 8.046875 -9.078125 C 8.316406 -9.078125 8.570312 -9.128906 8.8125 -9.234375 Z M 8.8125 -9.234375 "/></g></g></g><g fill="#ffffff" fill-opacity="1"><g transform="translate(236.064044, 122.88575)"><g><path d="M 14.921875 -11.359375 C 16.117188 -10.234375 16.820312 -9.035156 17.03125 -7.765625 C 17.238281 -6.503906 16.992188 -5.320312 16.296875 -4.21875 C 15.609375 -3.125 14.492188 -2.289062 12.953125 -1.71875 C 12.222656 -1.4375 11.453125 -1.207031 10.640625 -1.03125 C 9.835938 -0.863281 9.054688 -0.804688 8.296875 -0.859375 C 7.597656 -0.910156 6.890625 -1.070312 6.171875 -1.34375 C 5.453125 -1.625 4.78125 -1.957031 4.15625 -2.34375 C 3.414062 -2.8125 2.945312 -3.429688 2.75 -4.203125 C 2.5625 -4.972656 2.609375 -5.6875 2.890625 -6.34375 C 3.179688 -6.96875 3.660156 -7.421875 4.328125 -7.703125 C 4.992188 -7.992188 5.769531 -8.085938 6.65625 -7.984375 C 7.28125 -7.910156 7.898438 -7.847656 8.515625 -7.796875 C 9.128906 -7.742188 9.738281 -7.691406 10.34375 -7.640625 C 10.363281 -7.710938 10.382812 -7.785156 10.40625 -7.859375 C 10.4375 -7.941406 10.46875 -8.035156 10.5 -8.140625 C 10.019531 -8.296875 9.539062 -8.453125 9.0625 -8.609375 C 8.582031 -8.765625 8.117188 -8.945312 7.671875 -9.15625 C 6.890625 -9.550781 6.109375 -9.929688 5.328125 -10.296875 C 4.546875 -10.660156 3.835938 -11.117188 3.203125 -11.671875 C 2.191406 -12.523438 1.617188 -13.539062 1.484375 -14.71875 C 1.359375 -15.894531 1.59375 -17.070312 2.1875 -18.25 C 2.789062 -19.394531 3.664062 -20.34375 4.8125 -21.09375 C 5.96875 -21.851562 7.21875 -22.363281 8.5625 -22.625 C 9.90625 -22.894531 11.1875 -22.832031 12.40625 -22.4375 C 13.351562 -22.144531 14.125 -21.691406 14.71875 -21.078125 C 15.320312 -20.472656 15.675781 -19.6875 15.78125 -18.71875 C 15.832031 -18.320312 15.785156 -17.898438 15.640625 -17.453125 C 15.492188 -17.015625 15.289062 -16.640625 15.03125 -16.328125 C 14.71875 -15.929688 14.335938 -15.785156 13.890625 -15.890625 C 13.453125 -15.992188 13.023438 -16.15625 12.609375 -16.375 C 11.671875 -16.894531 10.828125 -17.085938 10.078125 -16.953125 C 9.335938 -16.828125 8.613281 -16.34375 7.90625 -15.5 C 8.25 -15.34375 8.5625 -15.195312 8.84375 -15.0625 C 9.132812 -14.9375 9.410156 -14.796875 9.671875 -14.640625 C 10.554688 -14.117188 11.46875 -13.609375 12.40625 -13.109375 C 13.351562 -12.617188 14.191406 -12.035156 14.921875 -11.359375 Z M 14.921875 -11.359375 "/></g></g></g><g fill="#ffffff" fill-opacity="1"><g transform="translate(254.655817, 122.88575)"><g><path d="M 16.875 -18.953125 C 17.863281 -17.929688 18.4375 -16.828125 18.59375 -15.640625 C 18.75 -14.453125 18.515625 -13.351562 17.890625 -12.34375 C 17.265625 -11.34375 16.285156 -10.609375 14.953125 -10.140625 C 13.890625 -9.773438 12.773438 -9.519531 11.609375 -9.375 C 10.453125 -9.226562 9.257812 -9.039062 8.03125 -8.8125 C 8.394531 -8.707031 8.742188 -8.59375 9.078125 -8.46875 C 9.421875 -8.351562 9.765625 -8.269531 10.109375 -8.21875 C 10.785156 -8.09375 11.46875 -7.992188 12.15625 -7.921875 C 12.851562 -7.859375 13.523438 -7.722656 14.171875 -7.515625 C 15.109375 -7.203125 15.675781 -6.671875 15.875 -5.921875 C 16.070312 -5.179688 15.816406 -4.460938 15.109375 -3.765625 C 14.742188 -3.367188 14.285156 -3.019531 13.734375 -2.71875 C 13.191406 -2.414062 12.660156 -2.238281 12.140625 -2.1875 C 9.734375 -1.957031 7.707031 -2.265625 6.0625 -3.109375 C 4.425781 -3.960938 3.210938 -5.171875 2.421875 -6.734375 C 1.640625 -8.296875 1.328125 -10.046875 1.484375 -11.984375 C 1.585938 -13.179688 1.796875 -14.332031 2.109375 -15.4375 C 2.421875 -16.550781 2.921875 -17.617188 3.609375 -18.640625 C 4.460938 -19.972656 5.566406 -20.929688 6.921875 -21.515625 C 8.285156 -22.097656 9.75 -22.234375 11.3125 -21.921875 C 13.53125 -21.535156 15.382812 -20.546875 16.875 -18.953125 Z M 13.4375 -15.1875 C 13.488281 -15.1875 13.546875 -15.207031 13.609375 -15.25 C 13.671875 -15.289062 13.753906 -15.335938 13.859375 -15.390625 C 13.367188 -16.097656 12.75 -16.597656 12 -16.890625 C 11.257812 -17.191406 10.5625 -17.253906 9.90625 -17.078125 C 9.300781 -16.890625 8.851562 -16.578125 8.5625 -16.140625 C 8.28125 -15.710938 8.0625 -15.203125 7.90625 -14.609375 C 8.875 -14.710938 9.8125 -14.804688 10.71875 -14.890625 C 11.632812 -14.984375 12.539062 -15.082031 13.4375 -15.1875 Z M 13.4375 -15.1875 "/></g></g></g><g fill="#ffffff" fill-opacity="1"><g transform="translate(274.774071, 122.88575)"><g><path d="M 17.859375 -19.703125 C 18.585938 -19.359375 19.101562 -18.804688 19.40625 -18.046875 C 19.707031 -17.296875 19.6875 -16.421875 19.34375 -15.421875 C 18.925781 -14.148438 18.472656 -12.878906 17.984375 -11.609375 C 17.503906 -10.335938 16.96875 -9.09375 16.375 -7.875 C 15.09375 -5.207031 13.769531 -2.5625 12.40625 0.0625 C 11.050781 2.6875 9.695312 5.300781 8.34375 7.90625 C 8.132812 8.300781 7.898438 8.691406 7.640625 9.078125 C 7.378906 9.472656 7.066406 9.765625 6.703125 9.953125 C 5.804688 10.421875 4.851562 10.550781 3.84375 10.34375 C 3.3125 10.238281 2.898438 9.957031 2.609375 9.5 C 2.328125 9.039062 2.203125 8.535156 2.234375 7.984375 C 2.234375 7.515625 2.269531 7.046875 2.34375 6.578125 C 2.425781 6.109375 2.546875 5.664062 2.703125 5.25 C 3.117188 4.207031 3.546875 3.160156 3.984375 2.109375 C 4.429688 1.066406 4.90625 0.0351562 5.40625 -0.984375 C 5.5625 -1.367188 5.644531 -1.71875 5.65625 -2.03125 C 5.664062 -2.34375 5.582031 -2.695312 5.40625 -3.09375 C 4.800781 -4.445312 4.195312 -5.804688 3.59375 -7.171875 C 3 -8.546875 2.46875 -9.925781 2 -11.3125 C 1.738281 -12.09375 1.59375 -12.898438 1.5625 -13.734375 C 1.539062 -14.578125 1.503906 -15.398438 1.453125 -16.203125 C 1.421875 -16.703125 1.492188 -17.160156 1.671875 -17.578125 C 1.859375 -17.992188 2.226562 -18.28125 2.78125 -18.4375 C 3.382812 -18.59375 3.851562 -18.507812 4.1875 -18.1875 C 4.53125 -17.863281 4.804688 -17.46875 5.015625 -17 C 5.453125 -16.050781 5.878906 -15.097656 6.296875 -14.140625 C 6.722656 -13.191406 7.15625 -12.238281 7.59375 -11.28125 C 7.726562 -11.019531 7.878906 -10.75 8.046875 -10.46875 C 8.210938 -10.195312 8.398438 -9.863281 8.609375 -9.46875 C 8.898438 -10 9.160156 -10.472656 9.390625 -10.890625 C 9.628906 -11.304688 9.867188 -11.707031 10.109375 -12.09375 C 10.703125 -13.09375 11.289062 -14.085938 11.875 -15.078125 C 12.46875 -16.066406 13.078125 -17.046875 13.703125 -18.015625 C 14.273438 -18.898438 14.925781 -19.484375 15.65625 -19.765625 C 16.394531 -20.054688 17.128906 -20.035156 17.859375 -19.703125 Z M 17.859375 -19.703125 "/></g></g></g><g fill="#ffffff" fill-opacity="1"><g transform="translate(295.831703, 122.88575)"><g><path d="M 8.890625 -28.546875 L 9.15625 -28.125 C 8.519531 -25.613281 7.398438 -22.5625 5.796875 -18.96875 L 3.171875 -18.96875 C 4.066406 -22.832031 4.703125 -26.023438 5.078125 -28.546875 Z M 8.65625 -24.359375 Z M 8.5625 -35.109375 Z M 8.5625 -35.109375 "/></g></g></g><g fill="#ffffff" fill-opacity="1"><g transform="translate(308.024924, 122.88575)"><g><path d="M 14.921875 -11.359375 C 16.117188 -10.234375 16.820312 -9.035156 17.03125 -7.765625 C 17.238281 -6.503906 16.992188 -5.320312 16.296875 -4.21875 C 15.609375 -3.125 14.492188 -2.289062 12.953125 -1.71875 C 12.222656 -1.4375 11.453125 -1.207031 10.640625 -1.03125 C 9.835938 -0.863281 9.054688 -0.804688 8.296875 -0.859375 C 7.597656 -0.910156 6.890625 -1.070312 6.171875 -1.34375 C 5.453125 -1.625 4.78125 -1.957031 4.15625 -2.34375 C 3.414062 -2.8125 2.945312 -3.429688 2.75 -4.203125 C 2.5625 -4.972656 2.609375 -5.6875 2.890625 -6.34375 C 3.179688 -6.96875 3.660156 -7.421875 4.328125 -7.703125 C 4.992188 -7.992188 5.769531 -8.085938 6.65625 -7.984375 C 7.28125 -7.910156 7.898438 -7.847656 8.515625 -7.796875 C 9.128906 -7.742188 9.738281 -7.691406 10.34375 -7.640625 C 10.363281 -7.710938 10.382812 -7.785156 10.40625 -7.859375 C 10.4375 -7.941406 10.46875 -8.035156 10.5 -8.140625 C 10.019531 -8.296875 9.539062 -8.453125 9.0625 -8.609375 C 8.582031 -8.765625 8.117188 -8.945312 7.671875 -9.15625 C 6.890625 -9.550781 6.109375 -9.929688 5.328125 -10.296875 C 4.546875 -10.660156 3.835938 -11.117188 3.203125 -11.671875 C 2.191406 -12.523438 1.617188 -13.539062 1.484375 -14.71875 C 1.359375 -15.894531 1.59375 -17.070312 2.1875 -18.25 C 2.789062 -19.394531 3.664062 -20.34375 4.8125 -21.09375 C 5.96875 -21.851562 7.21875 -22.363281 8.5625 -22.625 C 9.90625 -22.894531 11.1875 -22.832031 12.40625 -22.4375 C 13.351562 -22.144531 14.125 -21.691406 14.71875 -21.078125 C 15.320312 -20.472656 15.675781 -19.6875 15.78125 -18.71875 C 15.832031 -18.320312 15.785156 -17.898438 15.640625 -17.453125 C 15.492188 -17.015625 15.289062 -16.640625 15.03125 -16.328125 C 14.71875 -15.929688 14.335938 -15.785156 13.890625 -15.890625 C 13.453125 -15.992188 13.023438 -16.15625 12.609375 -16.375 C 11.671875 -16.894531 10.828125 -17.085938 10.078125 -16.953125 C 9.335938 -16.828125 8.613281 -16.34375 7.90625 -15.5 C 8.25 -15.34375 8.5625 -15.195312 8.84375 -15.0625 C 9.132812 -14.9375 9.410156 -14.796875 9.671875 -14.640625 C 10.554688 -14.117188 11.46875 -13.609375 12.40625 -13.109375 C 13.351562 -12.617188 14.191406 -12.035156 14.921875 -11.359375 Z M 14.921875 -11.359375 "/></g></g></g><g fill="#ffffff" fill-opacity="1"><g transform="translate(186.805632, 166.549463)"><g><path d="M 35.75 -5.90625 C 35.875 -4.445312 35.8125 -3.140625 35.5625 -1.984375 C 35.226562 -0.378906 34.253906 0.550781 32.640625 0.8125 C 31.015625 1.070312 29.796875 0.488281 28.984375 -0.9375 C 28.242188 -2.238281 27.800781 -3.515625 27.65625 -4.765625 C 27.507812 -6.035156 27.390625 -7.328125 27.296875 -8.640625 C 27.203125 -9.960938 27.117188 -11.265625 27.046875 -12.546875 C 27.023438 -13.003906 27 -13.46875 26.96875 -13.9375 C 26.9375 -14.40625 26.894531 -14.878906 26.84375 -15.359375 C 26.832031 -15.554688 26.820312 -15.773438 26.8125 -16.015625 C 26.8125 -16.265625 26.804688 -16.492188 26.796875 -16.703125 L 26.75 -17.953125 L 9.015625 -17.375 L 9.0625 -16.078125 C 9.070312 -15.828125 9.078125 -15.597656 9.078125 -15.390625 C 9.085938 -15.179688 9.097656 -14.976562 9.109375 -14.78125 L 9.21875 -11.140625 C 9.289062 -10.097656 9.34375 -9.046875 9.375 -7.984375 C 9.40625 -6.929688 9.441406 -5.867188 9.484375 -4.796875 L 9.484375 -4.640625 C 9.535156 -4.285156 9.554688 -3.941406 9.546875 -3.609375 C 9.535156 -3.285156 9.519531 -2.953125 9.5 -2.609375 C 9.4375 -1.523438 9.144531 -0.65625 8.625 0 C 8.113281 0.664062 7.441406 1.007812 6.609375 1.03125 C 6.609375 1.03125 6.597656 1.03125 6.578125 1.03125 C 6.566406 1.03125 6.5625 1.03125 6.5625 1.03125 C 5.6875 1.0625 4.953125 0.773438 4.359375 0.171875 C 3.765625 -0.429688 3.421875 -1.238281 3.328125 -2.25 C 2.835938 -7.476562 2.398438 -12.28125 2.015625 -16.65625 C 1.628906 -21.039062 1.28125 -25.207031 0.96875 -29.15625 C 0.90625 -30.125 0.941406 -31.117188 1.078125 -32.140625 C 1.222656 -33.171875 1.367188 -34.128906 1.515625 -35.015625 C 1.671875 -35.910156 2.03125 -36.628906 2.59375 -37.171875 C 3.164062 -37.710938 3.859375 -37.960938 4.671875 -37.921875 C 5.429688 -37.910156 6.066406 -37.644531 6.578125 -37.125 C 7.097656 -36.601562 7.445312 -35.875 7.625 -34.9375 C 7.757812 -34.007812 7.875 -33.050781 7.96875 -32.0625 C 8.070312 -31.070312 8.175781 -30.09375 8.28125 -29.125 C 8.320312 -28.707031 8.359375 -28.289062 8.390625 -27.875 C 8.421875 -27.457031 8.460938 -27.039062 8.515625 -26.625 L 8.75 -24.40625 L 26.484375 -24.984375 L 26.5 -27.734375 C 26.539062 -28.566406 26.566406 -29.375 26.578125 -30.15625 C 26.585938 -30.9375 26.613281 -31.734375 26.65625 -32.546875 C 26.664062 -33.234375 26.679688 -33.953125 26.703125 -34.703125 C 26.734375 -35.453125 26.789062 -36.207031 26.875 -36.96875 C 26.988281 -37.707031 27.210938 -38.410156 27.546875 -39.078125 C 27.734375 -39.472656 28.03125 -39.835938 28.4375 -40.171875 C 28.84375 -40.515625 29.429688 -40.664062 30.203125 -40.625 C 31.378906 -40.519531 32.128906 -39.921875 32.453125 -38.828125 C 32.835938 -37.515625 33.09375 -36.078125 33.21875 -34.515625 C 33.695312 -29.316406 34.148438 -24.359375 34.578125 -19.640625 C 35.003906 -14.921875 35.394531 -10.34375 35.75 -5.90625 Z M 35.75 -5.90625 "/></g></g></g><g fill="#ffffff" fill-opacity="1"><g transform="translate(224.62941, 165.319655)"><g><path d="M 17.5625 -25.046875 C 19.132812 -24.859375 20.503906 -24.335938 21.671875 -23.484375 C 22.847656 -22.640625 23.738281 -21.566406 24.34375 -20.265625 C 24.945312 -18.972656 25.144531 -17.539062 24.9375 -15.96875 C 24.757812 -14.09375 24.320312 -12.335938 23.625 -10.703125 C 22.9375 -9.066406 21.941406 -7.5625 20.640625 -6.1875 C 18.484375 -3.96875 15.828125 -2.828125 12.671875 -2.765625 C 11.585938 -2.960938 10.492188 -3.140625 9.390625 -3.296875 C 8.296875 -3.453125 7.222656 -3.6875 6.171875 -4 C 4.109375 -4.664062 2.582031 -5.78125 1.59375 -7.34375 C 0.601562 -8.914062 0.226562 -10.78125 0.46875 -12.9375 C 0.757812 -15.476562 1.539062 -17.710938 2.8125 -19.640625 C 4.09375 -21.578125 5.804688 -23.238281 7.953125 -24.625 C 9.796875 -25.800781 11.796875 -26.128906 13.953125 -25.609375 C 14.546875 -25.460938 15.148438 -25.34375 15.765625 -25.25 C 16.378906 -25.164062 16.976562 -25.097656 17.5625 -25.046875 Z M 16.390625 -14.96875 C 16.765625 -16.21875 16.421875 -17.191406 15.359375 -17.890625 C 14.367188 -18.554688 13.609375 -18.972656 13.078125 -19.140625 C 12.546875 -19.316406 12.078125 -19.210938 11.671875 -18.828125 C 11.273438 -18.453125 10.765625 -17.769531 10.140625 -16.78125 C 9.941406 -16.46875 9.773438 -16.203125 9.640625 -15.984375 C 8.691406 -14.191406 8.414062 -12.941406 8.8125 -12.234375 C 9.21875 -11.535156 10.4375 -11.171875 12.46875 -11.140625 C 13.507812 -11.140625 14.300781 -11.414062 14.84375 -11.96875 C 15.394531 -12.519531 15.910156 -13.519531 16.390625 -14.96875 Z M 16.390625 -14.96875 "/></g></g></g><g fill="#ffffff" fill-opacity="1"><g transform="translate(251.423422, 164.44847)"><g><path d="M 40.171875 -12.875 C 40.253906 -12.1875 40.316406 -11.484375 40.359375 -10.765625 C 40.410156 -10.054688 40.410156 -9.351562 40.359375 -8.65625 C 40.253906 -7.539062 39.910156 -6.597656 39.328125 -5.828125 C 38.742188 -5.066406 38.019531 -4.609375 37.15625 -4.453125 C 36.050781 -4.203125 35.070312 -4.285156 34.21875 -4.703125 C 33.375 -5.128906 32.75 -5.789062 32.34375 -6.6875 C 31.851562 -7.8125 31.46875 -8.992188 31.1875 -10.234375 C 30.90625 -11.484375 30.617188 -12.726562 30.328125 -13.96875 C 30.171875 -14.519531 30.078125 -15.082031 30.046875 -15.65625 C 30.015625 -16.238281 29.953125 -16.8125 29.859375 -17.375 C 29.753906 -17.40625 29.597656 -17.429688 29.390625 -17.453125 C 28.660156 -16.429688 28.035156 -15.363281 27.515625 -14.25 C 26.992188 -13.144531 26.703125 -11.929688 26.640625 -10.609375 C 26.617188 -10.117188 26.613281 -9.625 26.625 -9.125 C 26.644531 -8.625 26.628906 -8.128906 26.578125 -7.640625 C 26.441406 -6.316406 25.96875 -5.257812 25.15625 -4.46875 C 24.351562 -3.675781 23.378906 -3.273438 22.234375 -3.265625 C 21.085938 -3.273438 20.097656 -3.691406 19.265625 -4.515625 C 18.441406 -5.335938 17.992188 -6.425781 17.921875 -7.78125 C 17.890625 -8.75 17.898438 -9.71875 17.953125 -10.6875 C 18.015625 -11.664062 18.007812 -12.640625 17.9375 -13.609375 C 17.90625 -14.648438 17.835938 -15.671875 17.734375 -16.671875 C 17.628906 -17.671875 17.546875 -18.675781 17.484375 -19.6875 C 17.335938 -19.707031 17.203125 -19.738281 17.078125 -19.78125 C 16.960938 -19.832031 16.835938 -19.878906 16.703125 -19.921875 C 16.296875 -19.390625 15.851562 -18.863281 15.375 -18.34375 C 14.90625 -17.820312 14.5625 -17.257812 14.34375 -16.65625 C 13.800781 -15.332031 13.3125 -13.992188 12.875 -12.640625 C 12.4375 -11.285156 11.992188 -9.941406 11.546875 -8.609375 C 11.421875 -8.222656 11.3125 -7.828125 11.21875 -7.421875 C 11.132812 -7.015625 11.007812 -6.625 10.84375 -6.25 C 10.007812 -4.0625 8.535156 -2.988281 6.421875 -3.03125 C 5.484375 -3.03125 4.628906 -3.3125 3.859375 -3.875 C 3.085938 -4.445312 2.53125 -5.226562 2.1875 -6.21875 C 2.039062 -6.601562 1.90625 -7 1.78125 -7.40625 C 1.664062 -7.820312 1.617188 -8.21875 1.640625 -8.59375 C 2.078125 -13.46875 2.582031 -18.394531 3.15625 -23.375 C 3.164062 -23.789062 3.253906 -24.207031 3.421875 -24.625 C 3.585938 -25.050781 3.820312 -25.394531 4.125 -25.65625 C 4.488281 -25.976562 4.929688 -26.296875 5.453125 -26.609375 C 5.984375 -26.921875 6.457031 -27.050781 6.875 -27 C 7.34375 -26.945312 7.789062 -26.707031 8.21875 -26.28125 C 8.644531 -25.863281 9.003906 -25.453125 9.296875 -25.046875 C 9.554688 -24.703125 9.71875 -24.304688 9.78125 -23.859375 C 9.84375 -23.410156 9.9375 -22.957031 10.0625 -22.5 C 11.851562 -23.851562 13.332031 -24.867188 14.5 -25.546875 C 15.675781 -26.234375 16.707031 -26.582031 17.59375 -26.59375 C 18.476562 -26.601562 19.378906 -26.265625 20.296875 -25.578125 C 21.222656 -24.898438 22.320312 -23.890625 23.59375 -22.546875 C 23.820312 -22.859375 24.023438 -23.179688 24.203125 -23.515625 C 24.390625 -23.847656 24.617188 -24.140625 24.890625 -24.390625 C 26.128906 -25.679688 27.472656 -26.503906 28.921875 -26.859375 C 30.367188 -27.222656 31.785156 -27.113281 33.171875 -26.53125 C 34.566406 -25.957031 35.796875 -24.925781 36.859375 -23.4375 C 37.984375 -21.875 38.738281 -20.191406 39.125 -18.390625 C 39.507812 -16.585938 39.859375 -14.75 40.171875 -12.875 Z M 40.171875 -12.875 "/></g></g></g><g fill="#ffffff" fill-opacity="1"><g transform="translate(294.033702, 163.063032)"><g><path d="M 21.609375 -25.921875 C 22.972656 -24.609375 23.785156 -23.164062 24.046875 -21.59375 C 24.304688 -20.019531 24.039062 -18.550781 23.25 -17.1875 C 22.457031 -15.832031 21.1875 -14.8125 19.4375 -14.125 C 18.019531 -13.59375 16.546875 -13.207031 15.015625 -12.96875 C 13.492188 -12.726562 11.921875 -12.425781 10.296875 -12.0625 C 10.785156 -11.9375 11.253906 -11.800781 11.703125 -11.65625 C 12.160156 -11.519531 12.617188 -11.425781 13.078125 -11.375 C 13.972656 -11.226562 14.878906 -11.125 15.796875 -11.0625 C 16.722656 -11 17.625 -10.847656 18.5 -10.609375 C 19.769531 -10.234375 20.550781 -9.554688 20.84375 -8.578125 C 21.132812 -7.597656 20.828125 -6.625 19.921875 -5.65625 C 19.453125 -5.113281 18.859375 -4.628906 18.140625 -4.203125 C 17.429688 -3.785156 16.726562 -3.535156 16.03125 -3.453125 C 12.851562 -3.035156 10.15625 -3.351562 7.9375 -4.40625 C 5.71875 -5.457031 4.050781 -7.003906 2.9375 -9.046875 C 1.832031 -11.097656 1.34375 -13.410156 1.46875 -15.984375 C 1.550781 -17.585938 1.773438 -19.128906 2.140625 -20.609375 C 2.515625 -22.097656 3.128906 -23.535156 3.984375 -24.921875 C 5.078125 -26.734375 6.507812 -28.054688 8.28125 -28.890625 C 10.0625 -29.734375 11.992188 -29.976562 14.078125 -29.625 C 17.046875 -29.195312 19.554688 -27.960938 21.609375 -25.921875 Z M 17.1875 -20.765625 C 17.257812 -20.765625 17.335938 -20.789062 17.421875 -20.84375 C 17.503906 -20.90625 17.613281 -20.96875 17.75 -21.03125 C 17.0625 -21.945312 16.21875 -22.585938 15.21875 -22.953125 C 14.21875 -23.328125 13.289062 -23.378906 12.4375 -23.109375 C 11.644531 -22.835938 11.066406 -22.410156 10.703125 -21.828125 C 10.335938 -21.242188 10.066406 -20.550781 9.890625 -19.75 C 11.160156 -19.925781 12.398438 -20.09375 13.609375 -20.25 C 14.816406 -20.40625 16.007812 -20.578125 17.1875 -20.765625 Z M 17.1875 -20.765625 "/></g></g></g><g fill="#ffffff" fill-opacity="1"><g transform="translate(193.00776, 202.547544)"><g><path d="M 27.6875 -10.984375 C 27.789062 -8.273438 26.90625 -5.90625 25.03125 -3.875 C 24.257812 -3 23.503906 -2.382812 22.765625 -2.03125 C 16.953125 0.832031 11.519531 1.285156 6.46875 -0.671875 C 5.425781 -1.085938 4.382812 -1.773438 3.34375 -2.734375 C 2.425781 -3.546875 2.1875 -4.644531 2.625 -6.03125 C 2.882812 -6.9375 3.046875 -7.882812 3.109375 -8.875 C 3.222656 -10.632812 3.332031 -12.390625 3.4375 -14.140625 C 3.539062 -15.898438 3.640625 -17.648438 3.734375 -19.390625 C 3.828125 -20.785156 3.910156 -22.1875 3.984375 -23.59375 C 4.054688 -25.007812 4.140625 -26.414062 4.234375 -27.8125 L 4.234375 -27.984375 C 4.273438 -28.296875 4.269531 -28.628906 4.21875 -28.984375 C 4.164062 -29.347656 3.882812 -29.695312 3.375 -30.03125 C 3.101562 -30.207031 2.941406 -30.457031 2.890625 -30.78125 C 2.878906 -31.15625 3.019531 -31.476562 3.3125 -31.75 L 3.734375 -32.125 C 4.222656 -32.5625 4.742188 -33 5.296875 -33.4375 C 5.847656 -33.882812 6.414062 -34.171875 7 -34.296875 C 10.332031 -35.003906 13.554688 -35.351562 16.671875 -35.34375 C 16.847656 -35.363281 17.035156 -35.367188 17.234375 -35.359375 C 21.023438 -35.203125 23.648438 -33.398438 25.109375 -29.953125 C 26.429688 -26.867188 25.875 -24.15625 23.4375 -21.8125 C 23.3125 -21.695312 23.175781 -21.585938 23.03125 -21.484375 C 22.882812 -21.378906 22.722656 -21.269531 22.546875 -21.15625 C 22.460938 -21.113281 22.375 -21.054688 22.28125 -20.984375 C 22.195312 -20.910156 22.109375 -20.851562 22.015625 -20.8125 L 21.484375 -20.4375 L 21.984375 -20.078125 C 22.148438 -19.921875 22.304688 -19.78125 22.453125 -19.65625 C 22.609375 -19.539062 22.757812 -19.421875 22.90625 -19.296875 C 23.175781 -19.066406 23.429688 -18.851562 23.671875 -18.65625 C 23.910156 -18.457031 24.140625 -18.253906 24.359375 -18.046875 C 26.429688 -16.117188 27.539062 -13.765625 27.6875 -10.984375 Z M 10.125 -23.359375 L 10.09375 -22.8125 L 10.640625 -22.921875 C 10.941406 -22.960938 11.210938 -23.015625 11.453125 -23.078125 C 11.691406 -23.140625 11.941406 -23.195312 12.203125 -23.25 C 12.785156 -23.320312 13.347656 -23.421875 13.890625 -23.546875 C 14.441406 -23.671875 14.976562 -23.820312 15.5 -24 C 16.34375 -24.269531 16.957031 -24.550781 17.34375 -24.84375 C 17.726562 -25.144531 18.023438 -25.40625 18.234375 -25.625 L 18.453125 -25.921875 C 18.648438 -26.222656 18.832031 -26.570312 19 -26.96875 C 19.175781 -27.363281 19.203125 -27.78125 19.078125 -28.21875 C 18.941406 -28.644531 18.625 -28.992188 18.125 -29.265625 C 17.601562 -29.546875 16.828125 -29.785156 15.796875 -29.984375 C 15.316406 -30.035156 14.847656 -30.0625 14.390625 -30.0625 C 13.929688 -30.0625 13.382812 -30 12.75 -29.875 C 12.113281 -29.757812 11.304688 -29.554688 10.328125 -29.265625 L 9.96875 -29.140625 L 9.953125 -28.796875 C 9.960938 -28.171875 9.976562 -27.648438 10 -27.234375 C 10.019531 -26.828125 10.039062 -26.4375 10.0625 -26.0625 C 10.070312 -25.6875 10.082031 -25.300781 10.09375 -24.90625 C 10.101562 -24.507812 10.113281 -23.992188 10.125 -23.359375 Z M 21.09375 -10.328125 C 21.351562 -11.710938 20.882812 -13.019531 19.6875 -14.25 C 18.914062 -15.0625 18.082031 -15.628906 17.1875 -15.953125 C 16.300781 -16.273438 15.398438 -16.453125 14.484375 -16.484375 C 13.578125 -16.523438 12.664062 -16.519531 11.75 -16.46875 L 10.890625 -16.46875 C 10.609375 -16.445312 10.375 -16.269531 10.1875 -15.9375 C 10 -15.601562 9.882812 -15.335938 9.84375 -15.140625 C 9.820312 -14.710938 9.800781 -14.273438 9.78125 -13.828125 C 9.769531 -13.390625 9.753906 -12.957031 9.734375 -12.53125 L 9.703125 -11.578125 L 9.71875 -11.109375 C 9.71875 -10.992188 9.710938 -10.894531 9.703125 -10.8125 C 9.703125 -10.726562 9.703125 -10.644531 9.703125 -10.5625 C 9.679688 -10.15625 9.660156 -9.757812 9.640625 -9.375 C 9.628906 -8.988281 9.597656 -8.597656 9.546875 -8.203125 C 9.453125 -7.097656 9.96875 -6.46875 11.09375 -6.3125 C 11.46875 -6.257812 11.828125 -6.226562 12.171875 -6.21875 C 14.316406 -6.125 16.484375 -6.5625 18.671875 -7.53125 C 20.035156 -8.125 20.84375 -9.054688 21.09375 -10.328125 Z M 21.09375 -10.328125 "/></g></g></g><g fill="#ffffff" fill-opacity="1"><g transform="translate(220.395497, 203.710574)"><g><path d="M 22.359375 -7.609375 C 22.585938 -6.328125 22.554688 -5.253906 22.265625 -4.390625 C 21.972656 -3.535156 21.40625 -2.957031 20.5625 -2.65625 C 19.65625 -2.3125 18.78125 -2.347656 17.9375 -2.765625 C 17.101562 -3.191406 16.34375 -3.960938 15.65625 -5.078125 C 15.59375 -5.171875 15.519531 -5.269531 15.4375 -5.375 C 15.363281 -5.476562 15.285156 -5.597656 15.203125 -5.734375 C 14.972656 -5.609375 14.757812 -5.472656 14.5625 -5.328125 C 14.363281 -5.179688 14.148438 -5.054688 13.921875 -4.953125 C 13.316406 -4.679688 12.703125 -4.394531 12.078125 -4.09375 C 11.460938 -3.789062 10.828125 -3.582031 10.171875 -3.46875 C 8.566406 -3.132812 7.109375 -3.265625 5.796875 -3.859375 C 4.492188 -4.460938 3.492188 -5.390625 2.796875 -6.640625 C 2.109375 -7.898438 1.875 -9.359375 2.09375 -11.015625 C 2.238281 -12.347656 2.644531 -13.640625 3.3125 -14.890625 C 3.976562 -16.148438 4.8125 -17.304688 5.8125 -18.359375 C 6.820312 -19.421875 7.9375 -20.300781 9.15625 -21 C 10.382812 -21.695312 11.632812 -22.117188 12.90625 -22.265625 C 14.34375 -22.460938 15.625 -22.253906 16.75 -21.640625 C 17.882812 -21.035156 18.960938 -20.3125 19.984375 -19.46875 C 20.316406 -19.207031 20.550781 -18.796875 20.6875 -18.234375 C 20.820312 -17.679688 20.921875 -17.164062 20.984375 -16.6875 C 21.265625 -15.1875 21.5 -13.675781 21.6875 -12.15625 C 21.882812 -10.632812 22.109375 -9.117188 22.359375 -7.609375 Z M 10.046875 -9.6875 C 11.390625 -10.132812 12.429688 -11.046875 13.171875 -12.421875 C 13.910156 -13.796875 14.175781 -15.300781 13.96875 -16.9375 C 12.507812 -16.425781 11.351562 -15.664062 10.5 -14.65625 C 9.644531 -13.644531 8.945312 -12.476562 8.40625 -11.15625 C 8.34375 -10.96875 8.304688 -10.703125 8.296875 -10.359375 C 8.285156 -10.015625 8.332031 -9.8125 8.4375 -9.75 C 8.65625 -9.625 8.910156 -9.554688 9.203125 -9.546875 C 9.503906 -9.535156 9.785156 -9.582031 10.046875 -9.6875 Z M 10.046875 -9.6875 "/></g></g></g><g fill="#ffffff" fill-opacity="1"><g transform="translate(242.819188, 204.662804)"><g><path d="M 21.875 -6.40625 C 22.457031 -5.8125 22.785156 -5.140625 22.859375 -4.390625 C 22.941406 -3.640625 22.773438 -2.976562 22.359375 -2.40625 C 21.960938 -1.8125 21.375 -1.414062 20.59375 -1.21875 C 19.8125 -1.019531 19.039062 -1.113281 18.28125 -1.5 C 17.863281 -1.707031 17.457031 -1.960938 17.0625 -2.265625 C 16.675781 -2.578125 16.304688 -2.894531 15.953125 -3.21875 C 15.078125 -4.09375 14.195312 -4.988281 13.3125 -5.90625 C 12.4375 -6.832031 11.492188 -7.816406 10.484375 -8.859375 C 10.234375 -8.265625 9.972656 -7.707031 9.703125 -7.1875 C 9.429688 -6.675781 9.203125 -6.15625 9.015625 -5.625 C 8.640625 -4.5625 8.117188 -3.765625 7.453125 -3.234375 C 6.785156 -2.703125 6.015625 -2.476562 5.140625 -2.5625 C 4.253906 -2.6875 3.53125 -3.082031 2.96875 -3.75 C 2.40625 -4.425781 2.082031 -5.320312 2 -6.4375 C 1.90625 -7.726562 1.941406 -8.992188 2.109375 -10.234375 C 2.503906 -13.421875 2.910156 -16.609375 3.328125 -19.796875 C 3.742188 -22.984375 4.164062 -26.164062 4.59375 -29.34375 C 4.601562 -29.507812 4.617188 -29.6875 4.640625 -29.875 C 4.660156 -30.0625 4.71875 -30.207031 4.8125 -30.3125 C 5.070312 -30.582031 5.347656 -30.894531 5.640625 -31.25 C 5.929688 -31.613281 6.21875 -31.789062 6.5 -31.78125 C 6.8125 -31.800781 7.171875 -31.671875 7.578125 -31.390625 C 7.984375 -31.117188 8.28125 -30.828125 8.46875 -30.515625 C 8.695312 -30.066406 8.859375 -29.582031 8.953125 -29.0625 C 9.046875 -28.550781 9.097656 -28.046875 9.109375 -27.546875 C 9.179688 -25.984375 9.234375 -24.421875 9.265625 -22.859375 C 9.304688 -21.304688 9.328125 -19.757812 9.328125 -18.21875 C 9.347656 -17.78125 9.359375 -17.332031 9.359375 -16.875 C 9.367188 -16.414062 9.394531 -15.898438 9.4375 -15.328125 C 10.050781 -15.765625 10.625 -16.171875 11.15625 -16.546875 C 11.6875 -16.929688 12.210938 -17.273438 12.734375 -17.578125 C 13.359375 -17.960938 13.984375 -18.332031 14.609375 -18.6875 C 15.242188 -19.050781 15.894531 -19.390625 16.5625 -19.703125 C 17.351562 -20.066406 18.066406 -20.175781 18.703125 -20.03125 C 19.335938 -19.894531 19.800781 -19.582031 20.09375 -19.09375 C 20.738281 -17.96875 20.363281 -16.863281 18.96875 -15.78125 C 18.351562 -15.269531 17.71875 -14.773438 17.0625 -14.296875 C 16.414062 -13.828125 15.769531 -13.359375 15.125 -12.890625 C 14.9375 -12.734375 14.75 -12.570312 14.5625 -12.40625 C 14.375 -12.25 14.160156 -12.0625 13.921875 -11.84375 C 14.859375 -11.226562 15.78125 -10.640625 16.6875 -10.078125 C 17.59375 -9.523438 18.476562 -8.960938 19.34375 -8.390625 C 19.789062 -8.085938 20.226562 -7.773438 20.65625 -7.453125 C 21.082031 -7.140625 21.488281 -6.789062 21.875 -6.40625 Z M 21.875 -6.40625 "/></g></g></g><g fill="#ffffff" fill-opacity="1"><g transform="translate(265.713607, 205.635024)"><g><path d="M 19.3125 -19.9375 C 20.363281 -18.769531 20.941406 -17.53125 21.046875 -16.21875 C 21.160156 -14.914062 20.851562 -13.726562 20.125 -12.65625 C 19.394531 -11.59375 18.289062 -10.835938 16.8125 -10.390625 C 15.632812 -10.035156 14.40625 -9.804688 13.125 -9.703125 C 11.84375 -9.597656 10.523438 -9.445312 9.171875 -9.25 C 9.566406 -9.125 9.945312 -8.984375 10.3125 -8.828125 C 10.6875 -8.679688 11.050781 -8.578125 11.40625 -8.515625 C 12.144531 -8.335938 12.890625 -8.195312 13.640625 -8.09375 C 14.398438 -7.988281 15.128906 -7.8125 15.828125 -7.5625 C 16.847656 -7.175781 17.445312 -6.570312 17.625 -5.75 C 17.800781 -4.925781 17.488281 -4.144531 16.6875 -3.40625 C 16.269531 -3 15.753906 -2.644531 15.140625 -2.34375 C 14.535156 -2.039062 13.941406 -1.867188 13.359375 -1.828125 C 10.722656 -1.691406 8.523438 -2.125 6.765625 -3.125 C 5.015625 -4.125 3.75 -5.492188 2.96875 -7.234375 C 2.1875 -8.984375 1.925781 -10.914062 2.1875 -13.03125 C 2.351562 -14.332031 2.632812 -15.582031 3.03125 -16.78125 C 3.425781 -17.976562 4.015625 -19.117188 4.796875 -20.203125 C 5.804688 -21.617188 7.066406 -22.613281 8.578125 -23.1875 C 10.085938 -23.769531 11.6875 -23.851562 13.375 -23.4375 C 15.78125 -22.914062 17.757812 -21.75 19.3125 -19.9375 Z M 15.375 -15.984375 C 15.4375 -15.984375 15.5 -16 15.5625 -16.03125 C 15.632812 -16.070312 15.734375 -16.117188 15.859375 -16.171875 C 15.347656 -16.960938 14.691406 -17.539062 13.890625 -17.90625 C 13.085938 -18.269531 12.328125 -18.367188 11.609375 -18.203125 C 10.941406 -18.023438 10.441406 -17.707031 10.109375 -17.25 C 9.773438 -16.789062 9.507812 -16.234375 9.3125 -15.578125 C 10.375 -15.648438 11.40625 -15.71875 12.40625 -15.78125 C 13.414062 -15.84375 14.40625 -15.910156 15.375 -15.984375 Z M 15.375 -15.984375 "/></g></g></g><g fill="#ffffff" fill-opacity="1"><g transform="translate(286.297179, 206.509113)"><g><path d="M 16.828125 -11.71875 C 18.085938 -10.425781 18.800781 -9.085938 18.96875 -7.703125 C 19.132812 -6.316406 18.816406 -5.039062 18.015625 -3.875 C 17.210938 -2.707031 15.953125 -1.847656 14.234375 -1.296875 C 13.429688 -1.003906 12.582031 -0.785156 11.6875 -0.640625 C 10.789062 -0.492188 9.929688 -0.460938 9.109375 -0.546875 C 8.347656 -0.640625 7.578125 -0.851562 6.796875 -1.1875 C 6.023438 -1.519531 5.3125 -1.914062 4.65625 -2.375 C 3.875 -2.925781 3.394531 -3.628906 3.21875 -4.484375 C 3.039062 -5.335938 3.125 -6.109375 3.46875 -6.796875 C 3.8125 -7.472656 4.351562 -7.945312 5.09375 -8.21875 C 5.832031 -8.5 6.6875 -8.5625 7.65625 -8.40625 C 8.332031 -8.289062 9.003906 -8.191406 9.671875 -8.109375 C 10.335938 -8.035156 11 -7.953125 11.65625 -7.859375 C 11.675781 -7.953125 11.703125 -8.035156 11.734375 -8.109375 C 11.773438 -8.191406 11.8125 -8.289062 11.84375 -8.40625 C 11.332031 -8.601562 10.816406 -8.796875 10.296875 -8.984375 C 9.773438 -9.171875 9.28125 -9.390625 8.8125 -9.640625 C 7.976562 -10.117188 7.140625 -10.570312 6.296875 -11 C 5.460938 -11.4375 4.71875 -11.96875 4.0625 -12.59375 C 2.976562 -13.582031 2.390625 -14.722656 2.296875 -16.015625 C 2.210938 -17.304688 2.523438 -18.582031 3.234375 -19.84375 C 3.953125 -21.070312 4.957031 -22.070312 6.25 -22.84375 C 7.539062 -23.625 8.921875 -24.125 10.390625 -24.34375 C 11.867188 -24.570312 13.273438 -24.441406 14.609375 -23.953125 C 15.617188 -23.585938 16.4375 -23.054688 17.0625 -22.359375 C 17.695312 -21.671875 18.050781 -20.789062 18.125 -19.71875 C 18.15625 -19.289062 18.082031 -18.835938 17.90625 -18.359375 C 17.726562 -17.878906 17.488281 -17.472656 17.1875 -17.140625 C 16.832031 -16.734375 16.410156 -16.597656 15.921875 -16.734375 C 15.441406 -16.867188 14.984375 -17.0625 14.546875 -17.3125 C 13.535156 -17.925781 12.617188 -18.175781 11.796875 -18.0625 C 10.984375 -17.945312 10.171875 -17.445312 9.359375 -16.5625 C 9.710938 -16.382812 10.046875 -16.21875 10.359375 -16.0625 C 10.671875 -15.90625 10.960938 -15.734375 11.234375 -15.546875 C 12.179688 -14.929688 13.160156 -14.332031 14.171875 -13.75 C 15.179688 -13.164062 16.066406 -12.488281 16.828125 -11.71875 Z M 16.828125 -11.71875 "/></g></g></g></svg>
